<svg xmlns="http://www.w3.org/2000/svg" viewBox="0 0 150 141.7">
<!-- SVG created with Arrow, by QuiverAI (https://quiver.ai) -->
  <style type="text/css">.cls-0 {fill:#F8FAFC;}
.cls-1 {fill-rule:evenodd;clip-rule:evenodd;fill:#DCDCDC;}
.cls-2 {fill:#FFFFFF;}
.cls-3 {fill:#0A64B9;}
.cls-4 {fill:#0C5EC7;}
.cls-5 {fill:#EEEDEE;}
.cls-6 {fill:#4185EE;}
.cls-7 {fill:#127D3F;}
.cls-8 {fill:#2EA055;}
.cls-9 {fill:#FABD04;}
.cls-10 {fill:#EDAC03;}
.cls-11 {fill:#DD4632;}
.cls-12 {fill:#DF4831;}
.cls-13 {fill:#4383EA;}
.cls-14 {fill:#0F753C;}
.cls-15 {fill:#F6B60B;}</style>
  <path class="cls-1" d="m105 8.6h-64c-17.5 0-28.4 10.2-28.4 27.4v65c0 17.9 10.3 28.1 28.4 28.1h63.9c18.1-0.1 29.1-10.2 29.1-28.1v-65c0-17.2-10.9-27.4-29-27.4z"/>
  <path class="cls-2" d="m106.4 10.9h-66.3c-14.6 0-26.4 10.3-26.4 26.1v64.3c0 16.7 9.4 28.3 26.4 28.3h66.4c15.6 0 26.7-8.6 26.7-25.6v-67c0-15.8-10.8-26.1-26.8-26.1z"/>
  <path class="cls-3" d="m55.8 85.4-13.5 24.2c-1.5-0.6-3.3-2-4.9-4.7l-8.4-14.5c-1.2-1.9-2.2-4.4-1.4-5h28.2z"/>
  <path class="cls-4" d="m55.8 85.4-13.7 23.9c-1.1-0.4-3-1.6-4.1-3.3l-9-15.3c-1.2-1.8-1.6-3.2-1.4-5.3h28.2z"/>
  <path class="cls-8" d="m58.9 31.7c-1.2 1.1-2.3 2.1-3 3.6l-27.4 46.3c-0.7 1.2-1.1 2.3-0.9 3.9h28.4l17.3-30.1-13.6-24.5-0.8 0.8z"/>
  <path class="cls-6" d="m91 85.4h-35.1l-13.7 23.9c1 0.9 2.7 1.3 4.6 1.3h53.2c1.8 0 3.1-0.5 4.2-1.2l-13.2-24z"/>
  <path class="cls-14" d="m82.7 29.9h-19.3c-1.5 0-3.1 0.4-3.7 1.1l13.6 24.4 13.7-24.1c-1.1-1-2.4-1.4-4.3-1.4z"/>
  <path class="cls-7" d="m60 31.4 13.1 22.2 13.6-22.3c-0.7-0.6-2.3-1-3.7-1h-19.6c-1.5 0.1-2.6 0.4-3.4 1.1z"/>
  <path class="cls-9" d="m118 81-27.2-46.4c-1-1.5-1.8-2.6-3.8-3.3l-13.6 24.2 17.6 29.9h28c0.2-1.3-0.4-3.4-1-4.4z"/>
  <path class="cls-15" d="m87.4 31.6-13.8 23.9 17.4 29.4h28c0-1.1-0.4-2.4-1.1-3.8l-27.3-46.5c-1.1-1.5-1.6-2.3-3.2-3z"/>
  <path class="cls-11" d="m91 85.4 13.2 24.1c2.6-0.1 4.3-1.7 5.6-4.1l8.2-14.7c0.8-1.5 1.2-3.7 1-5.3h-28z"/>
  <path class="cls-12" d="m91.4 85.4 12.5 23.6c2.1-0.3 3.6-1.1 4.8-3l9.3-15.6c0.7-1.2 1.1-3.3 1-5h-27.6z"/>
  <polygon class="cls-2" points="56 85.4 90.8 85.4 73.4 55.5"/>
  <path class="cls-13" d="m55.9 86.7-12.9 22.3c0.9 0.3 2.3 0.5 3.5 0.5h53.5c1.1 0 2.3-0.1 3.2-0.5l-12.2-22.3h-35.1z"/>
</svg>