<svg xmlns="http://www.w3.org/2000/svg" viewBox="0 0 113.4 115">
<!-- SVG created with Arrow, by QuiverAI (https://quiver.ai) -->
  <style type="text/css">.cls-0 {fill:url(#SVGID_1_);}
.cls-1 {fill:#FFFFFF;}
.cls-2 {fill:url(#SVGID_2_);}
.cls-3 {fill:url(#SVGID_3_);}
.cls-4 {fill:url(#SVGID_4_);}</style>
  <linearGradient id="SVGID_1_" x1="56.7" x2="56.7" y1="-9.095e-13" y2="114.8" gradientUnits="userSpaceOnUse">
    <stop stop-color="#F5F7FA" offset="0"/>
    <stop stop-color="#E6E7EA" offset="1"/>
  </linearGradient>
  <path class="cls-0" d="m113.4 114.8h-113.4v-91.8c0-12.7 10.3-23 23-23h67.4c12.7 0 23 10.3 23 23v91.8z"/>
  <path class="cls-1" d="m113.1 10v76.9c0 16.1-9.4 28.1-23.1 28.1h-66.7c-13.6 0-23.3-10.3-23.3-24.2v-71.3c0-9.9 9-19.6 23.3-19.5h69.6c9.2 0 19.9 5.3 20.2 10z"/>
  <linearGradient id="SVGID_2_" x1="17.24" x2="94.92" y1="94.5" y2="18.78" gradientUnits="userSpaceOnUse">
    <stop stop-color="#022D4A" offset="0"/>
    <stop stop-color="#0B5C90" offset=".4835"/>
    <stop stop-color="#0582CA" offset="1"/>
  </linearGradient>
  <path class="cls-2" d="m55.9 5.6c-28.6 0-51.8 23.2-51.8 51.9s22.8 52.5 51.8 52.5c29.1 0 52.4-23.5 52.4-52.5s-23.7-51.9-52.4-51.9zm0 4.8c23.1 0 41.9 17.2 46.3 37.2-2.8-3.6-6.2-8.7-15.7-8.8-4.5 0-8.5 2.2-10.8 3.6-2.5-4.3-9.6-10-19.7-10-8.8 0-15 3.4-20 10-1.9-1.2-3.8-3.5-10.6-3.5-8 0-11.7 4.2-15.4 8.9 4-20 22.8-37.4 45.9-37.4zm0.1 66.9c-9.9 0-15.9-6.7-18.8-13.9-1.3 3.2-5.6 7.2-10.8 7.2-8.6 0-13.8-6.1-13.8-12.9 0-5.9 5.2-12.8 13.2-12.9 4.4-0.1 9.7 3.2 11.5 7.5 1.7-4.9 7.4-14.6 18.7-14.6 10.3-0.2 16.8 7.3 18.8 14.8 2.3-3.9 6.5-7.7 11.9-7.7 6.1 0 12.9 5.1 12.9 12.9 0 6.3-4.7 12.9-12.9 12.9-6.2 0-10.3-3.9-11.7-7.7-1.5 5.2-7.4 14.4-19 14.4zm-0.1 28c-21.4 0-40.8-15.3-46.3-37.2 3.7 3.8 7.7 8.3 15.8 8.3 4.4 0 8.1-1.5 10.8-3.1 3 3.3 9.1 10 19.8 10.1 9.6 0 15.9-4.5 20-10.1 3.3 1.2 5.6 3.1 10.4 3.1 6.6 0 12.1-3 15.6-8-3.7 17.2-21 36.9-46.1 36.9z"/>
  <linearGradient id="SVGID_3_" x1="19.59" x2="31.53" y1="58.01" y2="58.01" gradientUnits="userSpaceOnUse">
    <stop stop-color="#044469" offset="0"/>
    <stop stop-color="#0B5C90" offset="1"/>
  </linearGradient>
  <path class="cls-3" d="m25.5 52.1c-2.9 0-5.9 2.3-5.9 5.8 0 2.9 2.3 5.9 5.9 5.9 3.5 0.2 6.1-2.7 6-5.8 0-3.5-2.8-5.9-6-5.9z"/>
  <linearGradient id="SVGID_4_" x1="43.8" x2="68.48" y1="57.9" y2="57.9" gradientUnits="userSpaceOnUse">
    <stop stop-color="#095988" offset="0"/>
    <stop stop-color="#0B629B" offset="1"/>
  </linearGradient>
  <path class="cls-4" d="m56.1 45.4c-6.1 0-12.3 4.6-12.3 12.5 0 6 4.8 12.5 12.3 12.5 6.1 0 12.4-4.7 12.4-12.5 0-6.1-4.9-12.5-12.4-12.5z"/>
  <linearGradient id="SVGID_5_" x1="80.54" x2="92.48" y1="57.91" y2="57.91" gradientUnits="userSpaceOnUse">
    <stop stop-color="#0A6BAB" offset="0"/>
    <stop stop-color="#086EB1" offset="1"/>
  </linearGradient>
  <path d="m86.5 52.1c-2.9 0-6 2.2-6 5.9 0 1.9 1.4 5.7 6 5.7 3.5 0 6-2.6 6-5.8 0-3.1-2.5-5.8-6-5.8z" fill="url(#SVGID_5_)"/>
</svg>