<svg xmlns="http://www.w3.org/2000/svg" xmlns:xlink="http://www.w3.org/1999/xlink" width="80" height="80" viewBox="0 0 80 80" fill="none"><path     fill="#0D53FF"  d="M41.1101 18C29.9557 18 21.2317 26.6896 20.8901 37.5001L27.4301 36.1101C28.3916 29.3915 34.1964 24.21 41.2001 24.21C48.2038 24.21 54.1122 29.4682 55.0001 36.2601C55.0842 36.8514 55.1301 37.4627 55.1301 38.0801C55.1301 38.7289 55.0842 39.3722 55.0001 40.0001C54.8215 41.2612 55.5469 42.5106 56.7501 42.9501C58.0794 43.4315 59.2252 44.3008 60.0501 45.4101C61.0379 46.734 61.5625 48.4102 61.4101 50.2102L61.4001 50.2002C61.0796 53.8839 57.8395 56.6502 54.1301 56.6502L49.145 56.6686C47.4051 56.675 45.9964 58.0844 45.9909 59.8244L45.9909 59.8244C45.9854 61.5768 47.4044 63.0003 49.1567 63.0003L54.2401 63.0002C54.5028 63.0002 54.7674 62.9959 55.0301 62.9802C62.0548 62.5721 67.6401 56.7555 67.6401 49.6602C67.6401 44.8985 65.1231 40.7 61.3401 38.3401L61.3401 38.1501C61.3401 27.0414 52.2646 18 41.1101 18Z"></path><path d="M18.42 47.4114C18.42 43.3186 21.7372 40.0014 25.83 40.0014C30.5766 40.0014 34.1044 44.388 33.08 49.0214L32.97 49.5114C32.9073 49.7616 32.87 50.0218 32.87 50.2914C32.87 52.0639 34.3075 53.5014 36.08 53.5014C37.6294 53.5014 38.9191 52.4017 39.22 50.9414L39.34 50.4314L39.34 50.4214C41.2611 41.7765 34.6857 33.5814 25.83 33.5814C18.1923 33.5814 12 39.7736 12 47.4114L12 48.2914C12 56.4151 18.5863 63.0014 26.71 63.0014L39.35 63.0014C41.1225 63.0014 42.56 61.5639 42.56 59.7914C42.56 58.0189 41.1225 56.5814 39.35 56.5814L25.71 56.5814C21.5848 56.5814 18.42 52.8702 18.42 48.2914L18.42 47.4114Z" fill-rule="evenodd"  fill="url(#linear_fill_33_115)" ></path><defs><linearGradient id="linear_fill_33_115" x1="15.20947265625" y1="41.2752685546875" x2="46.76806640625" y2="66.2093505859375" gradientUnits="userSpaceOnUse"><stop offset="0" stop-color="#01B7F6"  /><stop offset="1" stop-color="#00FC3B"  /></linearGradient></defs></svg>