<svg xmlns="http://www.w3.org/2000/svg" viewBox="0 0 101.8 101.9">
<!-- SVG created with Arrow, by QuiverAI (https://quiver.ai) -->
  <style type="text/css">.cls-0 {fill:#F4F5F7;}
.cls-1 {fill:#FFFFFF;stroke:#E6E7EA;stroke-miterlimit:10;}
.cls-2 {fill:url(#SVGID_1_);}
.cls-3 {fill:url(#SVGID_2_);}
.cls-4 {fill:url(#SVGID_3_);}
.cls-5 {fill:url(#SVGID_4_);}
.cls-6 {fill:url(#SVGID_5_);}
.cls-7 {fill:#ECAB3D;}
.cls-8 {fill:#F3912A;}
.cls-9 {fill:#EF8421;}
.cls-10 {fill:url(#SVGID_6_);}</style>
  <path class="cls-0" d="m101.8 80c0 7.7-5.9 15.9-13.3 18-4.8 1.4-10.9 1-16.5 1h-43.4c-5.2 0-10.6 0.3-15.6-1.5-7.5-2.8-13-10.2-13-18.5v-63.1c0-8.6 7.5-14.9 16.1-15.9h69.3c8.6 1 16.4 7.3 16.4 16v64z"/>
  <path class="cls-1" d="m99.7 77.9c0 10.1-5.9 17.3-14.7 19.1-3.9 1-8.6 1-12.6 1h-45.3c-4.5 0-9.1 0-13.3-1.6-7.3-2.4-12.8-9.8-12.8-18.5l-0.3-58.9c0-9.9 8.4-19 18.3-19h63c10 0 17.7 9 17.7 19v58.9z"/>
  <linearGradient id="SVGID_1_" x1="21.7" x2="21.7" y1="75.24" y2="21.38" gradientUnits="userSpaceOnUse">
    <stop stop-color="#FCEAD7" stop-opacity="0" offset="0"/>
    <stop stop-color="#FC8C5B" offset=".5083"/>
    <stop stop-color="#EE662B" offset=".8358"/>
  </linearGradient>
  <polygon class="cls-2" points="21.7 21.4 9.7 36.7 17 36.7 17 75.2 26.4 75.2 26.6 36.7 33.8 36.7"/>
  <linearGradient id="SVGID_2_" x1="78.57" x2="78.57" y1="73.68" y2="21.62" gradientUnits="userSpaceOnUse">
    <stop stop-color="#FEEDDA" stop-opacity=".25" offset="0"/>
    <stop stop-color="#FAAF3C" offset=".5236"/>
    <stop stop-color="#EDA83A" offset="1"/>
  </linearGradient>
  <polyline class="cls-3" points="73.8 36.7 73.9 73.7 83.4 73.7 83.4 36.7 90.5 36.7 78.6 21.6 66.6 36.5"/>
  <linearGradient id="SVGID_3_" x1="50.12" x2="50.12" y1="36.27" y2="9.939" gradientUnits="userSpaceOnUse">
    <stop stop-color="#F89D27" offset="0"/>
    <stop stop-color="#F18D22" offset="1"/>
  </linearGradient>
  <polygon class="cls-4" points="38.4 25.3 46 25.3 45.6 36.3 50.2 33.8 54.7 36.3 54.7 25.2 62.1 25.2 50.1 9.9"/>
  <linearGradient id="SVGID_4_" x1="50.29" x2="50.29" y1="56.41" y2="37.44" gradientUnits="userSpaceOnUse">
    <stop stop-color="#FAAC35" offset=".2163"/>
    <stop stop-color="#F89D27" offset=".995"/>
  </linearGradient>
  <polygon class="cls-5" points="31.4 46.7 49.9 37.4 69.2 46.6 50.2 56.4"/>
  <linearGradient id="SVGID_5_" x1="49.44" x2="37.01" y1="87.08" y2="52.18" gradientUnits="userSpaceOnUse">
    <stop stop-color="#F28B24" offset=".319"/>
    <stop stop-color="#F68A1F" offset="1"/>
  </linearGradient>
  <polygon class="cls-6" points="29.5 49.2 29.6 76.6 48.6 86.9 48.6 59"/>
  <linearGradient id="SVGID_6_" x1="62.93" x2="62.93" y1="86.95" y2="49.25" gradientUnits="userSpaceOnUse">
    <stop stop-color="#F0841B" offset=".3348"/>
    <stop stop-color="#F5891F" offset="1"/>
  </linearGradient>
  <polygon class="cls-10" points="51.7 59 51.7 87 70.8 76.6 70.8 49.3"/>
  <polygon class="cls-7" points="37.8 25.3 45.9 24.9 45.9 36.2 47 35.8 47 24.3 39.3 25"/>
  <polygon class="cls-7" points="66.5 36.6 73.8 36 73.8 34.1 78.5 21.6 66.6 36"/>
  <polygon class="cls-7" points="30.9 46.7 50.1 56.5 69.4 46.8 68.4 46.3 50.2 55.4 33.1 46.8 49.9 38 50 37.3"/>
  <polygon class="cls-7" points="29.4 49.1 29.6 49.6 46.9 59 48.1 59 48.1 86.9 48.7 86.9 48.7 59"/>
  <polygon class="cls-7" points="51.7 59 51.8 87 52.4 86.6 52.4 59.4 70.8 49.7 70.8 49.3"/>
</svg>