<svg xmlns="http://www.w3.org/2000/svg" viewBox="0 0 144.9 154">
<!-- SVG created with Arrow, by QuiverAI (https://quiver.ai) -->
  <style type="text/css">.cls-0 {fill:#F6F7FA;}
.cls-1 {fill:url(#SVGID_1_);}
.cls-2 {fill:#FFFFFF;}
.cls-3 {fill:url(#SVGID_2_);}
.cls-4 {fill:none;stroke:#3782C4;stroke-width:1.045;stroke-linejoin:round;stroke-miterlimit:10;}
.cls-5 {fill:url(#SVGID_3_);}</style>
  <linearGradient id="SVGID_1_" x1="72.44" x2="72.44" y1="149.2" y2="7.506" gradientUnits="userSpaceOnUse">
    <stop stop-color="#D0D1D3" offset="0"/>
    <stop stop-color="#EDEEF0" offset="1"/>
  </linearGradient>
  <path class="cls-1" d="m143.8 40v76.5c0 18.5-9.8 32.7-31.8 32.7h-79c-21.5 0-32-14.8-33.3-29l1.2-80.8c0.6-16.2 15.7-31.9 32.1-31.9h78.9c19.2 0 31.9 11.6 31.9 32.5z"/>
  <path class="cls-2" d="m142.1 41v74c-0.3 20.2-9.8 31.5-29.6 31.5h-76.7c-20.5 0-31.9-10.4-31.9-31.4v-74.1c0-18.6 13.2-31.3 31.3-31.3h75.8c19.8 0 31.1 10.2 31.1 31.3z"/>
  <linearGradient id="SVGID_2_" x1="73.23" x2="73.23" y1="123.6" y2="32.95" gradientTransform="translate(0 .42)" gradientUnits="userSpaceOnUse">
    <stop stop-color="#2570E0" offset="0"/>
    <stop stop-color="#2ABDEF" offset="1"/>
  </linearGradient>
  <path class="cls-3" d="m106.1 56.3c-3.6-11.3-16.1-23.4-33.1-23.4s-29.1 10.9-33 23.7c-9.6 1.3-22.4 11.4-22.4 26.8 0 11.2 8.8 27.8 27.2 27.8h13.5v-10.2h-12.4c-9.9 0-18.1-6.4-18.1-17.4 0-8.3 6.7-17.5 19.8-17.5 0-6.8 7.4-23.9 25.6-24.1 12.6-0.2 23.6 10.8 24.9 23.8 11.9-0.4 19.6 6.1 19.6 18 0 6.1-5.3 16.7-16.8 16.7h-13.2v10.7h13.7c11.7 0 27.1-8.7 27.1-27.6-0.7-16.6-12.4-25.3-22.4-27.3z"/>
  <linearGradient id="SVGID_3_" x1="73.15" x2="73.15" y1="123.6" y2="65.39" gradientTransform="translate(0 .42)" gradientUnits="userSpaceOnUse">
    <stop stop-color="#256EDC" offset="0"/>
    <stop stop-color="#2BBDED" offset="1"/>
  </linearGradient>
  <polygon class="cls-5" points="72.9 65.4 51.9 91.4 65.4 91.4 65.6 123.6 80.4 123.6 80.4 91.6 94.4 91.5 80.2 73.9"/>
  <path class="cls-4" d="m72.9 65.4-21 26h13.5l0.1 31.9h14.8l0.1-31.7 13.6-0.2-14.5-17.5-6.6-8.5z"/>
  <linearGradient id="SVGID_4_" x1="73.09" x2="73.09" y1="111.6" y2="32.85" gradientTransform="translate(0 .42)" gradientUnits="userSpaceOnUse">
    <stop stop-color="#3782C4" offset="0"/>
    <stop stop-color="#2EC1EE" offset="1"/>
  </linearGradient>
  <path d="m105.9 56.3c-3-8.7-12.6-23.2-33.1-23-14.5 0-26.7 9.2-32.8 23.4-7.1 1.4-22.2 9.1-22 26.7 0.2 8.5 6.6 27.1 26.8 27.7h13.2v-10.1h-12c-10.5 0-18.3-7.1-18.5-17.4s8.1-18 20.1-17.8c1-7.9 7.8-23.6 25.4-24.2 12.7-0.2 23.5 11 25.1 24.1 11-0.7 19.8 6.6 20.2 17.6 0 6.5-5 17-17 17.5h-13.3v10.3h13.7c8.9-0.1 26.2-6.8 26.5-27.7-0.4-12.2-9.2-24.8-22.3-27.1z" fill="none" stroke="url(#SVGID_4_)" stroke-linejoin="round" stroke-miterlimit="10" stroke-width="1.043"/>
</svg>